<?xml version="1.0" encoding="utf-8"?>
<!-- Generator: Adobe Illustrator 19.1.0, SVG Export Plug-In . SVG Version: 6.00 Build 0)  -->
<svg version="1.1" id="Layer_1" xmlns="http://www.w3.org/2000/svg" xmlns:xlink="http://www.w3.org/1999/xlink" x="0px" y="0px"
	 viewBox="0 0 396.8 349.4" style="enable-background:new 0 0 396.8 349.4;" xml:space="preserve">
<style type="text/css">
	.st0{fill:#A3A3A3;stroke:#A3A3A3;stroke-miterlimit:10;}
	.st1{fill:#BD3F2A;}
	.st2{fill:#F4F1DF;}
	.st3{fill:#ED6842;}
	.st4{fill:#402616;}
	.st5{fill:#FFF9F7;}
</style>
<g>
	<path class="st0" d="M339.5,184.3c15.9,13.4,31.8,35.3,26.7,55.3c-5.2,20.4-18.9,32.8-39.6,37c-3.2,0.7-6.6,0.9-9.9,0.9
		c-80.7,0-161.3,0-242,0.1c-24.9,0-49.3-18.1-50.9-48.1c-1-18.3,7.5-33.1,22.9-43.5c9.8-6.6,9.2-3.9,5.3-14.7
		c-11.6-32.7,16.1-72.5,54.9-71.2c9.8,0.3,18.6,3.5,27,8c4.1,2.2,6.1,1.6,7.5-3c4.3-14.3,11.9-26.3,24.6-34.7
		c25.6-16.9,61.1-8.6,76.5,17.9c2.8,4.9,4.9,10.2,7,15.4c2.7,6.8,2.7,7.1,9.4,3.6c10.1-5.3,20.7-7.7,32.2-7
		c24.1,1.4,47.7,24,50.5,47.9C344.4,171.5,336.7,182,339.5,184.3z"/>
	<g>
		<path class="st1" d="M217.7,216.8c0,12.7-9.9,23-22.2,23c-5.6,0-10.7-2.2-14.7-5.7c-4.6-4.2-7.6-10.4-7.6-17.3
			c0-12.7,9.9-23,22.2-23C207.7,193.8,217.7,204.1,217.7,216.8z"/>
		<path class="st2" d="M182.6,197.8l2.1,5.6c0.2,1.9-1.1,3.7-3,3.9l-1,0.1c-1.8,0.2-3.6-1.2-3.9-3c0-0.1,0-0.2,0.1-0.3l1.5-2.2"/>
		<path class="st2" d="M208.2,197.8l-2.1,5.6c-0.2,1.9,1.1,3.7,3,3.9l1,0.1c1.8,0.2,3.6-1.2,3.9-3c0-0.1,0-0.2-0.1-0.3l-1.5-2.2"/>
		<polygon class="st3" points="180.8,234.1 186.9,231.4 196.6,231.4 205,231.4 211.8,232.4 208.8,235.1 204.1,238 198.7,239.6 
			194.5,239.6 190.2,239.2 185.9,237.6 		"/>
	</g>
	<g>
		<path class="st4" d="M158.6,157.7H152c-4,0-7.2-3.3-7.2-7.2v-6c0-4,3.3-7.2,7.2-7.2h6.6c4,0,7.2,3.3,7.2,7.2v6
			C165.8,154.4,162.5,157.7,158.6,157.7z"/>
		<ellipse class="st5" cx="159.8" cy="145.9" rx="2.8" ry="4.4"/>
	</g>
	<g>
		<path class="st4" d="M238.9,158.7h-6.6c-4,0-7.2-3.3-7.2-7.2v-6c0-4,3.3-7.2,7.2-7.2h6.6c4,0,7.2,3.3,7.2,7.2v6
			C246.1,155.4,242.9,158.7,238.9,158.7z"/>
		<ellipse class="st5" cx="240.1" cy="146.9" rx="2.8" ry="4.4"/>
	</g>
</g>
</svg>
