<?xml version="1.0" encoding="utf-8"?>
<!-- Generator: Adobe Illustrator 19.1.0, SVG Export Plug-In . SVG Version: 6.00 Build 0)  -->
<svg version="1.1" id="Layer_1" xmlns="http://www.w3.org/2000/svg" xmlns:xlink="http://www.w3.org/1999/xlink" x="0px" y="0px"
	 viewBox="0 0 498.3 330.9" style="enable-background:new 0 0 498.3 330.9;" xml:space="preserve">
<style type="text/css">
	.st0{fill:#CBCBCB;stroke:#939393;stroke-miterlimit:10;}
	.st1{fill:#402616;}
	.st2{fill:#FFF9F7;}
	.st3{fill:#E04428;}
</style>
<g>
	<path class="st0" d="M312.5,64.1c6.6,5.7,13.2,14.9,11.1,23.4c-2.1,8.6-7.8,13.9-16.4,15.7c-1.3,0.3-2.7,0.4-4.1,0.4
		c-33.4,0-66.9,0-100.3,0c-10.3,0-20.4-7.7-21.1-20.4c-0.4-7.8,3.1-14,9.5-18.4c4.1-2.8,3.8-1.7,2.2-6.2
		c-4.8-13.8,6.7-30.7,22.8-30.1c4.1,0.1,7.7,1.5,11.2,3.4c1.7,0.9,2.5,0.7,3.1-1.3c1.8-6,4.9-11.1,10.2-14.7
		c10.6-7.1,25.3-3.7,31.7,7.6c1.2,2.1,2,4.3,2.9,6.5c1.1,2.9,1.1,3,3.9,1.5c4.2-2.2,8.6-3.2,13.4-3c10,0.6,19.8,10.1,20.9,20.3
		C314.5,58.7,311.3,63.2,312.5,64.1z"/>
	<path class="st0" d="M462,123.3c10.8,9.3,21.7,24.5,18.2,38.4c-3.5,14.2-12.9,22.8-27,25.7c-2.2,0.5-4.5,0.6-6.7,0.7
		c-54.9,0-109.8,0-164.7,0.1c-17,0-33.5-12.6-34.7-33.4c-0.7-12.7,5.1-23,15.6-30.2c6.7-4.6,6.2-2.7,3.6-10.2
		c-7.9-22.7,11-50.4,37.4-49.5c6.7,0.2,12.7,2.4,18.4,5.5c2.8,1.5,4.2,1.1,5.1-2.1c2.9-9.9,8.1-18.3,16.8-24.1
		c17.4-11.7,41.6-6,52.1,12.5c1.9,3.4,3.3,7.1,4.7,10.7c1.9,4.7,1.8,4.9,6.4,2.5c6.9-3.7,14.1-5.3,21.9-4.9
		c16.4,0.9,32.5,16.7,34.3,33.3C465.4,114.3,460.2,121.7,462,123.3z"/>
	<path class="st0" d="M233.9,130.7c10.8,9.3,21.7,24.5,18.2,38.4c-3.5,14.2-12.9,22.8-27,25.7c-2.2,0.5-4.5,0.6-6.7,0.7
		c-54.9,0-109.8,0-164.7,0.1c-17,0-33.5-12.6-34.7-33.4c-0.7-12.7,5.1-23,15.6-30.2c6.7-4.6,6.2-2.7,3.6-10.2
		c-7.9-22.7,11-50.4,37.4-49.5c6.7,0.2,12.7,2.4,18.4,5.5c2.8,1.5,4.2,1.1,5.1-2.1c2.9-9.9,8.1-18.3,16.8-24.1
		c17.4-11.7,41.6-6,52.1,12.5c1.9,3.4,3.3,7.1,4.7,10.7c1.9,4.7,1.8,4.9,6.4,2.5c6.9-3.7,14.1-5.3,21.9-4.9
		c16.4,0.9,32.5,16.7,34.3,33.3C237.2,121.7,232,129.1,233.9,130.7z"/>
	<path class="st0" d="M403.9,224.3c15.9,13.4,31.8,35.3,26.7,55.3c-5.2,20.4-18.9,32.8-39.6,37c-3.2,0.7-6.6,0.9-9.9,0.9
		c-80.7,0-161.3,0-242,0.1c-24.9,0-49.3-18.1-50.9-48.1c-1-18.3,7.5-33.1,22.9-43.5c9.8-6.6,9.2-3.9,5.3-14.7
		c-11.6-32.7,16.1-72.5,54.9-71.2c9.8,0.3,18.6,3.5,27,8c4.1,2.2,6.1,1.6,7.5-3c4.3-14.3,11.9-26.3,24.6-34.7
		c25.6-16.9,61.1-8.6,76.5,17.9c2.8,4.9,4.9,10.2,7,15.4c2.7,6.8,2.7,7.1,9.4,3.6c10.1-5.3,20.7-7.7,32.2-7
		c24.1,1.4,47.7,24,50.5,47.9C408.8,211.4,401.1,222,403.9,224.3z"/>
	<g>
		<path class="st1" d="M215.9,194.5h-6.6c-4,0-7.2-3.3-7.2-7.2v-6c0-4,3.3-7.2,7.2-7.2h6.6c4,0,7.2,3.3,7.2,7.2v6
			C223.1,191.3,219.9,194.5,215.9,194.5z"/>
		<ellipse class="st2" cx="217.1" cy="182.7" rx="2.8" ry="4.4"/>
	</g>
	<g>
		<path class="st1" d="M296.2,195.5h-6.6c-4,0-7.2-3.3-7.2-7.2v-6c0-4,3.3-7.2,7.2-7.2h6.6c4,0,7.2,3.3,7.2,7.2v6
			C303.4,192.3,300.2,195.5,296.2,195.5z"/>
		<ellipse class="st2" cx="297.4" cy="183.7" rx="2.8" ry="4.4"/>
	</g>
	<g>
		<g>
			<path class="st3" d="M207.2,263.5c8.8-4.3,18.6-7.2,28.4-6.5c9.7,0.7,16.8,6.5,25.6,9.7c13.8,5,29.7,1,40.2-9.1
				c2.3-2.2-1.2-5.8-3.5-3.5c-6.2,6-14.4,9.5-23.1,9.8c-8.9,0.2-15.6-3.7-23.4-7.5c-15.2-7.4-32-4.3-46.7,2.8
				C201.8,260.6,204.3,264.9,207.2,263.5L207.2,263.5z"/>
		</g>
	</g>
</g>
</svg>
