<?xml version="1.0" encoding="utf-8"?>
<!-- Generator: Adobe Illustrator 19.1.0, SVG Export Plug-In . SVG Version: 6.00 Build 0)  -->
<svg version="1.1" id="Layer_1" xmlns="http://www.w3.org/2000/svg" xmlns:xlink="http://www.w3.org/1999/xlink" x="0px" y="0px"
	 viewBox="0 0 1270 642.7" style="enable-background:new 0 0 1270 642.7;" xml:space="preserve">
<style type="text/css">
	.st0{fill:#68B7D6;}
	.st1{fill:#9BCBDA;}
	.st2{fill:#30845B;}
	.st3{fill:#29B574;}
	.st4{fill:#2AA366;}
	.st5{fill:#FCDD4F;stroke:#E8E27F;stroke-miterlimit:10;}
	.st6{fill:#A13422;}
	.st7{fill:#EF672A;}
	.st8{fill:#F9FCFD;}
	.st9{fill:#402616;}
	.st10{fill:#FFF9F7;}
	.st11{fill:#CBCBCB;}
	.st12{fill:none;stroke:#3A2316;stroke-width:3;stroke-miterlimit:10;}
	.st13{fill:#2D2B2A;}
</style>
<rect x="0" class="st0" width="1270" height="334.8"/>
<rect x="0" y="334.8" class="st1" width="1270" height="306.4"/>
<g>
	<path class="st2" d="M390,639.7C464.9,504,556.3,428.4,648.2,426.1S832,507.2,908,639"/>
</g>
<g>
	<path class="st3" d="M2,645.6c46.1-20.5,92.4-40.6,138.8-60.3c70.6-30,142.8-59.6,218.9-66.6c28.9-2.7,58.5-1.9,86.4,6.2
		c25.7,7.5,49.4,20.9,72.7,34.3c48.6,27.8,97.2,55.6,145.9,83.5"/>
	<g>
		<path class="st3" d="M3.3,647.7c43.4-19.3,87-38.2,130.7-56.9c42.1-18,84.4-35.9,128.3-49.4c43-13.3,88.3-22.9,133.5-21.6
			c23,0.7,45.6,4.8,67,13.3c21.3,8.4,41.1,20.2,60.9,31.5c46.6,26.7,93.2,53.3,139.9,80c2.8,1.6,5.3-2.7,2.5-4.3
			c-42.3-24.2-84.7-48.4-127-72.7c-20.1-11.5-40-23.5-60.9-33.3c-20.2-9.4-41.2-15.8-63.4-18.2c-45.4-5-92.2,3.2-135.9,15.2
			c-44.2,12.2-86.7,29.5-128.9,47.3C100,599.8,50.3,621.5,0.7,643.4C-2.2,644.7,0.3,649,3.3,647.7L3.3,647.7z"/>
	</g>
</g>
<g>
	<path class="st4" d="M1280.3,649.5c-28.9-57.3-86-95.7-146.4-115.1c-60.4-19.4-124.5-22.2-187.8-24.5c-39.2-1.4-78.7-2.7-117.3,4.3
		c-25.1,4.6-51,6.9-74.9,16.1c-22.7,8.7-156.5,85.8-193,113.4"/>
</g>
<g>
	<ellipse transform="matrix(0.9594 0.282 -0.282 0.9594 85.4619 -300.8627)" class="st5" cx="1088" cy="146.5" rx="89" ry="87.5"/>
	<g>
		<path class="st6" d="M1116,176.5c-0.5,2.3-1.7,5.9-4.4,9.5c-5,6.6-11.9,8.7-14.7,9.5c-9.5,2.7-17.5,0.1-25-2.4
			c-8.3-2.8-14.2-4.7-18.7-10.4c-0.9-1.1-1.6-2.2-2.2-3.4c-0.5-1-1-2-1.3-3c-3.1-8.3-1.3-16.9-0.8-19.2L1116,176.5z"/>
		<path class="st7" d="M1050.7,176.6c0.4-1.8,14-0.5,15.5-0.3c2.3,0.2,6.7,0.7,12,2.2c3.4,0.9,9.2,2.6,15.9,6.6
			c3.8,2.3,10,6.1,9.5,7.4c-0.4,1-5.2,3.6-11.6,4.1c-2.7,0.2-5.7-0.1-8.8-0.6c-3.1-0.5-6.2-1.4-9.2-2.3c-4.5-1.4-9.1-3.2-12.9-5.3
			c-2.5-1.4-4.7-2.9-6.4-4.4C1051.4,180.9,1050.5,177.4,1050.7,176.6z"/>
		<path class="st8" d="M1061,168.3l-3.9-1.1c-0.6-0.2-1-0.9-0.8-1.5l1.6-5.3c0.2-0.6,0.9-1,1.5-0.8l3.9,1.1c0.6,0.2,1,0.9,0.8,1.5
			l-1.6,5.3C1062.4,168.1,1061.7,168.5,1061,168.3z"/>
	</g>
	<polygon class="st5" points="1098.1,42.7 1126.4,13.5 1134.3,53.4 	"/>
	<polygon class="st5" points="1070.8,244 1042.1,272.8 1034.9,232.9 	"/>
	<polygon class="st5" points="1189.5,157.6 1215.5,189 1174.8,192.1 	"/>
	<polygon class="st5" points="1172.1,81.8 1212.9,83 1188.6,115.5 	"/>
	<polygon class="st5" points="1022.9,64.9 1025.9,24.4 1057.5,50.2 	"/>
	<polygon class="st5" points="1148.4,231.9 1141.5,271.9 1112.5,243.2 	"/>
	<polygon class="st5" points="989.1,132.2 959.9,103.8 1000,96.4 	"/>
	<polygon class="st5" points="1000.5,199.7 959.8,195.8 986.3,165 	"/>
	<g>
		<path class="st9" d="M1065.5,112.1l-1.3-0.4c-3.4-1-5.3-4.6-4.3-7.9l0.3-0.9c1-3.4,4.6-5.3,7.9-4.3l1.3,0.4c3.4,1,5.3,4.6,4.3,7.9
			l-0.3,0.9C1072.4,111.2,1068.8,113.1,1065.5,112.1z"/>
		
			<ellipse transform="matrix(0.9594 0.282 -0.282 0.9594 73.0936 -297.4537)" class="st10" cx="1069.9" cy="105.2" rx="1.9" ry="3"/>
	</g>
	<g>
		<path class="st9" d="M1122.2,130.5l-1.3-0.4c-3.4-1-5.3-4.6-4.3-7.9l0.3-0.9c1-3.4,4.6-5.3,7.9-4.3l1.3,0.4c3.4,1,5.3,4.6,4.3,7.9
			l-0.3,0.9C1129.1,129.5,1125.6,131.5,1122.2,130.5z"/>
		
			<ellipse transform="matrix(0.9594 0.282 -0.282 0.9594 80.5709 -312.7053)" class="st10" cx="1126.7" cy="123.6" rx="1.9" ry="3"/>
	</g>
</g>
<g>
	<path class="st11" d="M786.1,110.5c-14.9,7.8-31.2,22.2-30.5,38.7c0.7,16.8,9.6,28.8,25.4,35.7c2.5,1.1,5.1,1.8,7.7,2.4
		c64.2,13.7,128.4,27.3,192.6,41.1c19.8,4.3,42.2-5.8,48.5-29c3.9-14.2-0.4-27.1-11-37.9c-6.7-6.8-6.6-4.6-1.8-12.4
		c14.6-23.6-0.8-59.4-31.9-65c-7.9-1.4-15.4-0.4-22.8,1.7c-3.6,1-5.1,0.2-5.5-3.7c-1.1-11.9-5.1-22.6-13.8-31.3
		c-17.6-17.5-47.2-17.1-63.9,1.1c-3,3.3-5.6,7.1-8.1,10.9c-3.3,4.9-3.3,5.1-8.1,1.2c-7.2-5.9-15.2-9.5-24.5-10.9
		c-19.4-3-42,10.7-48.1,28.9C784.3,99.6,788.6,109.2,786.1,110.5z"/>
	<path class="st12" d="M927.2,119.6c1.7-1.3,5-3.3,9-3.8c5.1-0.7,8.6,1.5,10.1,2.5c1.6,1,4.1,2.7,5.7,6.5c0.5,1.2,0.8,2.2,1,3"/>
	<path class="st12" d="M851.1,105.3c1.5-1.5,4.4-4,8.4-5c5-1.4,8.7,0.3,10.3,1.1c1.7,0.8,4.4,2.1,6.6,5.7c0.7,1.1,1.1,2.1,1.4,2.8"
		/>
	<path class="st6" d="M895.8,152.3c1.7-2.9,8.1-2.8,14.3,0.3c5.7,2.9,9.1,11,9,11.4c-0.5,2.9-5.9,8.7-12.2,9.8
		c-6.3,1.2-12.3-0.6-13.3-4c-1-3.3,4.2-5.8,10.5-7c0.3,0,0.5-0.1,0.8-0.1c-0.3-0.1-0.5-0.2-0.8-0.4
		C898,159.3,894.1,155.3,895.8,152.3z"/>
	<g>
		<g>
			<path class="st13" d="M882.4,153.5c-31,0.1-61.9-5.3-90.9-16.2c-13.2-5-28.2-11.4-37.9-22c-4.6-5-7.8-12-5.5-18.9
				c2.3-6.8,12.3-10.5,16.9-3.7c1.8,2.6,6.1,0.1,4.3-2.5c-5.3-7.8-17.1-7.8-23.1-0.6c-7.4,9-3.3,21.6,3.8,29.3
				c9.3,10.1,22.8,16.3,35.2,21.4c14.5,5.9,29.6,10.3,44.9,13.3c17.2,3.4,34.7,5,52.2,5C885.6,158.5,885.6,153.5,882.4,153.5
				L882.4,153.5z"/>
		</g>
	</g>
	<g>
		<g>
			<path class="st13" d="M882.2,167.4c-37.6,7.7-75.6,15.4-114.1,15.4c-9.6,0-19.2-0.5-28.7-1.5c-8.6-1-18-1.9-26.1-5
				c-4.8-1.9-9.3-5.1-10.8-10.2c-1.1-3.9,0.3-7.8,3.8-9.9c5.8-3.3,13.9-1.5,19.9,0.1c3.1,0.8,4.4-4,1.3-4.8
				c-9.2-2.4-23.4-4.4-28.9,5.6c-7,12.7,7.5,22.8,18,25.5c33.8,8.6,70.7,5.9,104.8,1c20.8-3,41.4-7.1,62-11.4
				C886.7,171.6,885.3,166.7,882.2,167.4L882.2,167.4z"/>
		</g>
	</g>
	<g>
		<g>
			<path class="st13" d="M886.3,182.4c-4,8.5-11.6,13.9-19.2,19.1c-8.2,5.5-16.5,11-25.5,15c-9,4.1-19.3,7.2-29.2,6.3
				c-5.2-0.5-10.7-2.8-13.1-7.8c-2.7-5.6,1.9-12.5,8.2-10.1c3,1.2,4.3-3.7,1.3-4.8c-9.6-3.7-17.7,6.6-14.6,15.5
				c4.2,12.2,19,13.2,29.8,11.6c14-2.2,26.7-9,38.5-16.6c10.5-6.8,22.8-13.9,28.3-25.7C892,182.1,887.7,179.5,886.3,182.4
				L886.3,182.4z"/>
		</g>
	</g>
</g>
</svg>
