<?xml version="1.0" encoding="utf-8"?>
<!-- Generator: Adobe Illustrator 19.1.0, SVG Export Plug-In . SVG Version: 6.00 Build 0)  -->
<svg version="1.1" id="Layer_1" xmlns="http://www.w3.org/2000/svg" xmlns:xlink="http://www.w3.org/1999/xlink" x="0px" y="0px"
	 viewBox="0 0 1270 641.2" style="enable-background:new 0 0 1270 641.2;" xml:space="preserve">
<style type="text/css">
	.st0{fill:#68B7D6;}
	.st1{fill:#9BCBDA;}
	.st2{fill:#30845B;}
	.st3{fill:#29B574;}
	.st4{fill:#2AA366;}
	.st5{fill:#FCDD4F;stroke:#E8E27F;stroke-miterlimit:10;}
	.st6{fill:#A13422;}
	.st7{fill:#EF672A;}
	.st8{fill:#F9FCFD;}
	.st9{fill:#402616;}
	.st10{fill:#FFF9F7;}
</style>
<rect class="st0" width="1270" height="334.8"/>
<rect y="334.8" class="st1" width="1270" height="306.4"/>
<g>
	<path class="st2" d="M390,639.7C464.9,504,556.3,428.4,648.2,426.1S832,507.2,908,639"/>
</g>
<g>
	<path class="st3" d="M2,642.7c46.1-20,92.4-39.6,138.8-59c70.6-29.4,142.8-58.3,218.9-65.1c28.9-2.6,58.5-1.9,86.4,6
		c25.7,7.3,49.4,20.5,72.7,33.5c48.6,27.2,97.2,54.4,145.9,81.6"/>
	<g>
		<path class="st3" d="M3.3,644.8c44.1-19.1,88.3-37.9,132.7-56.4c41.5-17.3,83.1-34.5,126.2-47.4c43.1-13,88.3-22.3,133.5-21.1
			c23,0.6,45.5,4.7,67,13c21,8.1,40.5,19.4,60.1,30.4c46.9,26.2,93.8,52.4,140.7,78.6c2.8,1.6,5.3-2.7,2.5-4.3
			c-42.8-23.9-85.7-47.9-128.5-71.8c-19.8-11.1-39.5-22.7-60.2-32.1c-20-9-40.8-15.1-62.6-17.5c-45.4-4.9-92.1,3.1-135.9,14.9
			c-43.9,11.8-86.3,28.6-128.3,46c-50.1,20.7-100,41.9-149.7,63.5C-2.2,641.8,0.3,646.1,3.3,644.8L3.3,644.8z"/>
	</g>
</g>
<g>
	<path class="st4" d="M1280.3,644.2c-28.9-55.2-86-92.1-146.4-110.9c-60.4-18.7-124.5-21.4-187.8-23.6c-39.2-1.4-78.7-2.6-117.3,4.2
		c-25.1,4.4-51,6.7-74.9,15.5c-22.7,8.4-156.5,82.6-193,109.2"/>
</g>
<g>
	<ellipse transform="matrix(0.9594 0.282 -0.282 0.9594 86.7219 -310.486)" class="st5" cx="1122" cy="146" rx="83" ry="81.6"/>
	<g>
		<path class="st6" d="M1148.1,174.1c-0.5,2.1-1.6,5.5-4.1,8.9c-4.7,6.1-11.1,8.1-13.7,8.8c-8.8,2.5-16.3,0.1-23.3-2.3
			c-7.8-2.6-13.3-4.4-17.4-9.7c-0.8-1-1.5-2.1-2.1-3.2c-0.5-0.9-0.9-1.8-1.3-2.8c-2.9-7.8-1.2-15.8-0.7-17.9L1148.1,174.1z"/>
		<path class="st7" d="M1087.3,174.2c0.4-1.6,13-0.5,14.5-0.3c2.2,0.2,6.2,0.7,11.2,2.1c3.2,0.9,8.6,2.4,14.8,6.2
			c3.6,2.1,9.4,5.6,8.9,6.9c-0.3,0.9-4.9,3.3-10.8,3.8c-2.5,0.2-5.3-0.1-8.2-0.6c-2.9-0.5-5.8-1.3-8.6-2.1c-4.2-1.3-8.5-3-12.1-5
			c-2.3-1.3-4.4-2.7-5.9-4.1C1088,178.2,1087.1,174.9,1087.3,174.2z"/>
		<path class="st8" d="M1096.8,166.4l-3.4-1c-0.6-0.2-1-0.9-0.8-1.5l1.4-4.8c0.2-0.6,0.9-1,1.5-0.8l3.4,1c0.6,0.2,1,0.9,0.8,1.5
			l-1.4,4.8C1098.1,166.2,1097.5,166.5,1096.8,166.4z"/>
	</g>
	<polygon class="st5" points="1131.5,49.3 1157.8,22 1165.2,59.2 	"/>
	<polygon class="st5" points="1106,237 1079.3,263.9 1072.5,226.6 	"/>
	<polygon class="st5" points="1216.8,156.5 1241,185.7 1203.1,188.6 	"/>
	<polygon class="st5" points="1200.5,85.8 1238.6,86.8 1215.9,117.2 	"/>
	<polygon class="st5" points="1061.3,69.9 1064.1,32.2 1093.6,56.3 	"/>
	<polygon class="st5" points="1178.4,225.7 1171.9,263.1 1144.9,236.3 	"/>
	<polygon class="st5" points="1029.8,132.8 1002.6,106.3 1040,99.4 	"/>
	<polygon class="st5" points="1040.4,195.7 1002.5,192.1 1027.2,163.3 	"/>
	<g>
		<path class="st9" d="M1100.6,113.9l-0.4-0.1c-3.4-1-5.3-4.6-4.3-7.9v0c1-3.4,4.6-5.3,7.9-4.3l0.4,0.1c3.4,1,5.3,4.6,4.3,7.9v0
			C1107.6,112.9,1104,114.9,1100.6,113.9z"/>
		
			<ellipse transform="matrix(0.9594 0.282 -0.282 0.9594 75.1855 -307.3063)" class="st10" cx="1105.2" cy="107.6" rx="1.7" ry="2.8"/>
	</g>
	<g>
		<path class="st9" d="M1153.5,131l-0.4-0.1c-3.4-1-5.3-4.6-4.3-7.9v0c1-3.4,4.6-5.3,7.9-4.3l0.4,0.1c3.4,1,5.3,4.6,4.3,7.9v0
			C1160.5,130,1156.9,132,1153.5,131z"/>
		
			<ellipse transform="matrix(0.9594 0.282 -0.282 0.9594 82.1599 -321.532)" class="st10" cx="1158.1" cy="124.7" rx="1.7" ry="2.8"/>
	</g>
</g>
</svg>
