<?xml version="1.0" encoding="utf-8"?>
<!-- Generator: Adobe Illustrator 19.1.0, SVG Export Plug-In . SVG Version: 6.00 Build 0)  -->
<svg version="1.1" id="Layer_1" xmlns="http://www.w3.org/2000/svg" xmlns:xlink="http://www.w3.org/1999/xlink" x="0px" y="0px"
	 viewBox="0 0 330.9 442.9" style="enable-background:new 0 0 330.9 442.9;" xml:space="preserve">
<style type="text/css">
	.st0{fill:#E1E8E7;}
	.st1{fill:#A9263A;}
</style>
<g>
	<path class="st0" d="M270.2,110.9c7.3,25.3,6.7,51,1,77c-6.6,30.1-17.9,59-32.2,87.2c-2.9,5.7-6,11.3-8.9,16.9
		c0.2,0.1,0.1,0,0.3,0.1c10.5-14.5,21.9-28.6,32-43.3c17.6-25.7,31.9-52.5,40.6-81.3c8.6-28.5,4.8-55.3-8.9-80.9
		c-13.7-25.5-34.9-45.1-63.9-57.9c-7.5-3.3-15.5-5.6-23.3-8.4c0,0,0,0,0,0c6.4,5.7,13.3,10.5,19.4,16.1
		C249,57.3,262.2,82.9,270.2,110.9z"/>
	<path class="st1" d="M202.7,108.1c7,27.5,10.7,55.5,11.1,84c0.4,25.8-0.8,51.6-3.4,77.3c-0.7,6.6-1.5,13.3-2.3,19.9
		c-0.1,0.6,0.3,1.5,0.9,1.9c1.6,1.2,4.4,1.2,5.7,1.3c4,0.2,4.6-2.8,5.9-5c17.2-28,29.9-58,38.8-88.2c5.9-20,9.7-40.2,7.7-60.6
		c-2.3-23.5-10-45.7-23.1-66.3c-10-15.7-22.5-28.8-39-40.4c-3.2-2.3-7-4-10.5-6.2c-3.9-2.4-8.7-4.1-13.3-5.6
		c-2.8-0.9-6.1-1.7-9.1-2.3c-3.3-0.7-6.8-0.7-10.4-1c0,0,0,0,0,0c3.9,5.2,7.8,9.8,10.9,14.7C188,55.5,195.9,81.7,202.7,108.1z"/>
	<path class="st1" d="M170.5,296.1C170.5,296,170.5,296.1,170.5,296.1c-11.7-24.2-20.2-51.1-28.3-76.5c-6.1-19.1-10.2-37-14.4-56.5
		c-3.5-16.1-7.7-32.1-9.4-48.5c-1.9-19.1-1.6-37.9,1.2-57.1c1.5-10.6,3.6-21.6,5.9-32.2c-2.2,1.2-5.7,3.1-8.3,4.8
		C97.7,42.6,85.6,59.3,78.1,78.3c-16.4,41.8-15.8,82.8,3.9,122.3c17.9,36,47,65.1,75.3,95.5c4.9,5.2,6.4,4.8,11.8,2.6
		C170.3,298.3,170.9,297.1,170.5,296.1z"/>
	<path class="st0" d="M147.2,207.9c8.5,26.2,18.3,52,30.1,77.2c1.7,3.6,1.7,8.5,5.8,10.1c3.5,1.3,9,1.1,13.3-1.5l0,0
		c1.1-0.4,1.9-1.2,2.1-2.2c0.1-0.3,0.1-0.7,0.1-1c1.9-25.2,4.1-50.3,5.5-75.5c1.1-21.2,0.4-42.3-2.8-63.2c-2.4-16-5.8-31.9-9.4-47.7
		c-4.8-20.9-11.4-41.4-21.9-60.5c-4.2-7.5-9.7-14.6-15.7-21.1c-5.6-6-11.1-4.7-15.5,2.4c-0.2,0.3-0.4,0.7-0.5,1
		c0,0.1-0.1,0.3-0.1,0.4c-1.7,3.3-2.8,6.9-3.6,10.4c-1.5,4.5-3,9-3.8,13.5c-4.4,23.5-3.2,47-1.3,70.4
		C132,150.2,138,179.4,147.2,207.9z"/>
	<path class="st0" d="M146.3,299.8c-0.3-0.3-0.5-0.6-0.8-0.9c-21.4-20.4-40-42.7-55.8-66.8c-10.9-16.6-19.9-34-25.5-52.7
		c-4.8-16-6.1-32.5-5.6-49.2c0.6-21.2,4.6-42,14.5-61.9c4.9-9.8,11.3-19.2,16.7-28.2c0.2-0.1-0.8,0.2-1.4,0.7
		C79.7,48,70.1,54.5,62.6,62.4c-23.5,24.9-35.1,53.4-36.1,84.9c-0.8,22.5,5.5,43,18.3,61.9C70,246.5,105,275.7,145,300.8
		c0,0,0,0,0.1,0C145.8,301.3,154.8,307.6,146.3,299.8z"/>
	<path d="M318.7,131.7c-0.1-0.5-0.1-1.1,0-1.6c-0.7-5.3-1.5-10.4-2.2-15.7c-2.8-7.6-5-15.4-8.2-22.9C294,59.2,269.3,35,233.7,19.5
		c-20.8-9-43.4-13.2-67.3-12.4c-3.8,0.1-7.7,0.2-11.5,0.4c-6.7,1.1-13.4,2.2-20.1,3.3c-4.4,1.3-8.9,2.6-13.3,4.1
		c-50.9,17-82.6,49.2-98.8,93.5c-6,16.5-8,33.4-6.9,50.4c0.1,1-0.1,2.1-0.2,3.2c0,0,0,0,0,0l2.9,17.7c0,0,0,0,0,0
		c2.5,6.2,4.7,12.5,7.6,18.5c7.9,16.4,19,30.9,31.6,44.7C79.9,267,105.6,288,134.5,306c8.6,5.3,15.1,11.4,18.5,20.3
		c5.3,13.9,11.4,27.7,17.1,41.5c0.5,1.2,0.7,2.5,1.1,3.9c0,0,0,0,0,0c-1.9,0.5-3.6,0.9-5.3,1.4c-4.3,1.3-7.3,4.5-7.8,8.2
		c-0.5,4.2,22.2,47.1,34.3,50.3c0.1,0,1.4,0.3,2.3,0.4l38.7-6.2c0.5-0.2,0.9-0.5,1.3-0.7c0.9-0.5,1.5-1.1,2.4-1.8c0,0,0,0,0,0
		c8-8.6,15.7-53,13.5-57.2c-2-3.8-6.6-5.6-12.4-4.9c-1.5,0.2-3,0.5-5.1,0.8c0,0,0,0,0,0c-0.1-4.9-0.5-9.3-0.3-13.8
		c0.6-13.7,1.4-27.5,2-41.2c0.2-6.1,4.3-10.9,8.1-15.5c17.2-20.8,32.9-42.4,45.9-65.3c12.3-21.8,22.7-44.2,27.3-68.1
		c1.5-8,1.7-16.2,2.5-24.3c0.1-0.7,0.1-1.3,0.2-2C318.7,131.8,318.7,131.8,318.7,131.7z M134.6,36.6c0.8-3.6,1.9-7.1,3.6-10.4
		c0-0.1,0.1-0.3,0.1-0.4c0.1-0.3,0.3-0.7,0.5-1c4.4-7.1,9.8-8.3,15.4-2.4c6,6.5,11.5,13.6,15.6,21.1c10.5,19.1,17,39.6,21.8,60.5
		c3.6,15.8,6.9,31.7,9.3,47.7c3.1,20.9,3.9,42,2.8,63.2c-1.3,25.2-3.6,50.3-5.4,75.5c0,0.3-0.1,0.7-0.1,1c-0.2,1-1,1.9-2.1,2.2l0,0
		c-4.3,2.6-9.8,2.9-13.2,1.5c-4.1-1.6-4.1-6.5-5.7-10.1c-11.7-25.2-21.5-51-29.9-77.2c-9.2-28.5-15.2-57.7-17.6-87.5
		c-1.9-23.4-3-46.9,1.3-70.4C131.6,45.6,133.1,41.1,134.6,36.6z M118.1,29.5c2.5-1.7,5.3-3,7.4-4.2c0,0,0,0,0,0
		c-2.2,10.6-5,21.1-6.5,31.8c-2.7,19.2-2.5,38.5-0.6,57.6c1.6,16.4,3,32.8,6.4,48.9c4.1,19.5,9.6,38.8,15.6,58
		c7.8,25.3,18.1,49.9,29.5,74.1c0,0,0,0,0,0c0.4,1-0.2,2.2-1.3,2.7c-5.2,2.2-6.7,2.7-11.5-2.6c-27.5-30.4-55.8-59.6-73.2-95.5
		c-19.1-39.6-19.7-80.5-3.8-122.3C87.4,58.8,99.2,42,118.1,29.5z M145,300.9C145,300.8,145,300.8,145,300.9
		c-40-25.2-75-54.4-100.3-91.6c-12.8-18.9-19.1-39.4-18.3-61.9c1.1-31.5,12.6-60,36.1-84.9c7.5-8,17.1-14.5,25.8-21.6
		c0.7-0.5,1.6-0.8,1.4-0.7c-5.4,9-11.8,18.3-16.7,28.2c-10,19.8-13.9,40.7-14.5,61.9c-0.5,16.7,0.8,33.2,5.6,49.2
		c5.6,18.7,14.6,36.1,25.5,52.7c15.7,24.1,34.4,46.3,55.8,66.8c0.3,0.3,0.5,0.6,0.8,0.9C154.8,307.7,145.8,301.3,145,300.9z
		 M239.2,370.9c0.1,0,0.2,0,0.3,0.1c0,0.1-0.2,26-1.5,30.7c0,0,0,0,0,0c-0.7,9.3-3.9,14.4-14.1,16.4c0,0,0,0-0.1,0
		c-7.9,1.3-15.8,2.6-23.8,3.8c-10.2,1.6-14.5-3-18.6-11.4c-3.2-8.1-11-28.3-11-28.4l0,0c0-0.1,0.1-0.2,0.2-0.2L239.2,370.9z
		 M224,303.4C224,303.4,224,303.4,224,303.4c1.4,8.5,1.4,18.8,1.1,28c-0.3,9.7-1.7,19-3,28.7c-0.3,2.1-0.3,3.7-2.4,4
		c0,0-0.1,0-0.2,0l-35.5,5.7c-0.1,0-0.2,0-0.3,0c-0.2,0-0.4,0-0.6-0.2c-0.2-0.1-0.3-0.2-0.4-0.4c-11-15.5-19.6-37.4-22.8-52.5
		c0,0,0,0,0,0c-0.1-0.1-0.2-0.3-0.2-0.4l-0.2-1c0,0,0,0,0-0.1c-0.1-0.1-0.2-0.3-0.2-0.4l-0.2-1.2c0-0.1,0-0.2,0-0.3
		c-0.2-0.5,0.1-1.2,1-1.3l3.6-0.6c0.8-0.2,1.4-0.3,2-0.3l4.3-0.7c0.6-0.1,1.1-0.2,1.7-0.3l50.7-8.2c0.6-0.1,1,0.1,1.2,0.5
		C223.9,302.8,224,303.1,224,303.4z M220.6,287.5c-1.7,3-3.3,6.7-10.4,4.3c-0.7-0.2-1.1-0.8-1-1.4c0.7-6.7,1.6-13.3,2.2-19.9
		c2.5-25.8,3.6-51.6,3.2-77.3c-0.4-28.4-3.9-56.4-10.5-84c-6.3-26.4-13.8-52.6-28.2-76.4c-3-5-6.7-9.6-10.3-14.7c0,0,0,0,0,0
		c11.4,1,21.2,4.4,30.4,9.2c21.1,11.2,35.6,27.5,46.9,46.3c12.4,20.6,19.5,42.9,21.7,66.3c1.9,20.3-1.7,40.5-7.3,60.6
		C249,230.4,236.7,259.5,220.6,287.5z M303,167.6c-8.7,28.8-23,55.6-40.6,81.3c-10.1,14.7-21.5,28.8-32,43.3c-0.2-0.1-0.1,0-0.3-0.1
		c2.9-5.6,6-11.2,8.9-16.9c14.2-28.2,25.6-57.1,32.2-87.2c5.7-26,6.3-51.7-1-77c-8-28-21.2-53.6-44-74.5c-6-5.5-13-10.3-19.4-16.1
		c0,0,0,0,0,0c7.8,2.8,15.8,5.1,23.3,8.4c29,12.8,50.1,32.4,63.9,57.9C307.8,112.2,311.6,139.1,303,167.6z"/>
	<polygon class="st1" points="170.5,382 199.7,377.3 224.9,373.2 233.4,371.9 239.5,370.9 239.3,379.8 239.1,388.1 238.8,393.9 
		238.5,398.3 237.7,403.4 237.3,406.3 236.8,408.2 235.9,410.5 234.9,412.1 233.8,413.4 232.2,414.9 230.8,415.8 229,416.7 
		227,417.4 225.4,417.9 223.7,418.2 221.8,418.5 219.5,418.9 216.8,419.4 214.4,419.8 209.2,420.6 201.8,421.8 199,422.2 
		197.3,422.4 194.8,422.3 192.4,422 190.7,421.4 189.8,421 188.5,420.2 187,419.1 185.6,417.6 184.6,416.3 183.2,414.2 181.8,411.7 
		181.5,411.2 181.3,410.7 181,409.9 180.3,408.2 179.8,406.7 179.1,405.1 178.2,402.8 177.4,400.6 176.8,399.1 176.2,397.5 
		175.3,395.3 174.1,392 173,389.2 171.8,386.2 170.6,383 170.3,382.3 170.3,382.1 170.4,382 	"/>
</g>
</svg>
