<?xml version="1.0" encoding="utf-8"?>
<!-- Generator: Adobe Illustrator 19.1.0, SVG Export Plug-In . SVG Version: 6.00 Build 0)  -->
<svg version="1.1" id="Layer_1" xmlns="http://www.w3.org/2000/svg" xmlns:xlink="http://www.w3.org/1999/xlink" x="0px" y="0px"
	 viewBox="0 0 373.2 330.9" style="enable-background:new 0 0 373.2 330.9;" xml:space="preserve">
<style type="text/css">
	.st0{fill:#CBCBCB;stroke:#939393;stroke-miterlimit:10;}
	.st1{fill:#3A2316;}
	.st2{fill:#F9FCFD;}
	.st3{fill:none;stroke:#E04428;stroke-width:3;stroke-miterlimit:10;}
	.st4{fill:#388DCC;stroke:#388DCC;stroke-miterlimit:10;}
</style>
<g>
	<path class="st0" d="M334.8,138c15.9,13.4,31.8,35.3,26.7,55.3c-5.2,20.4-18.9,32.8-39.6,37c-3.2,0.7-6.6,0.9-9.9,0.9
		c-80.7,0-161.3,0-242,0.1c-24.9,0-49.3-18.1-50.9-48.1c-1-18.3,7.5-33.1,22.9-43.5c9.8-6.6,9.2-3.9,5.3-14.7
		c-11.6-32.7,16.1-72.5,54.9-71.2c9.8,0.3,18.6,3.5,27,8c4.1,2.2,6.1,1.6,7.5-3c4.3-14.3,11.9-26.3,24.6-34.7
		c25.6-16.9,61.1-8.6,76.5,17.9c2.8,4.9,4.9,10.2,7,15.4c2.7,6.8,2.7,7.1,9.4,3.6c10.1-5.3,20.7-7.7,32.2-7
		c24.1,1.4,47.7,24,50.5,47.9C339.7,125.2,332.1,135.7,334.8,138z"/>
	<g>
		<path class="st1" d="M157.9,116.1h-31.5c-1.4,0-2.6-1.2-2.6-2.6v-2.9c0-1.4,1.2-2.6,2.6-2.6h31.5c1.4,0,2.6,1.2,2.6,2.6v2.9
			C160.5,114.9,159.3,116.1,157.9,116.1z"/>
		<rect x="154.9" y="109.2" class="st2" width="3.5" height="5.7"/>
	</g>
	<g>
		<path class="st1" d="M247.4,116.1h-31.5c-1.4,0-2.6-1.2-2.6-2.6v-2.9c0-1.4,1.2-2.6,2.6-2.6h31.5c1.4,0,2.6,1.2,2.6,2.6v2.9
			C249.9,114.9,248.8,116.1,247.4,116.1z"/>
		<rect x="243.9" y="109.2" class="st2" width="3.5" height="5.7"/>
	</g>
	<path class="st3" d="M228.4,171.5c-3.9-3.3-11.2-8.5-21.8-11c-13.5-3.2-24.3,0.1-29,1.6c-4.9,1.5-12.9,4.2-19.8,11.5
		c-2.1,2.2-3.6,4.3-4.6,5.8"/>
	<path class="st4" d="M90.1,270c-1.8,4.1-4.3,6.9-5.7,6.3c-1.4-0.6-1-4.4,0.7-8.4s2.9-8.9,4.3-8.3C90.9,260.2,91.9,266,90.1,270z"/>
	<path class="st4" d="M145,245.5c-1.8,4.1-4.3,6.9-5.7,6.3c-1.4-0.6-1-4.4,0.7-8.4c1.8-4.1,2.9-8.9,4.3-8.3
		C145.7,235.7,146.7,241.5,145,245.5z"/>
	<path class="st4" d="M232.2,254.8c-1.8,4.1-4.3,6.9-5.7,6.3c-1.4-0.6-1-4.4,0.7-8.4c1.8-4.1,2.9-8.9,4.3-8.3
		C232.9,244.9,234,250.7,232.2,254.8z"/>
	<path class="st4" d="M177,284c-1.8,4.1-4.3,6.9-5.7,6.3c-1.4-0.6-1-4.4,0.7-8.4c1.8-4.1,2.9-8.9,4.3-8.3
		C177.7,274.2,178.7,280,177,284z"/>
	<path class="st4" d="M127.2,305.3c-1.8,4.1-4.3,6.9-5.7,6.3c-1.4-0.6-1-4.4,0.7-8.4s2.9-8.9,4.3-8.3
		C127.9,295.5,128.9,301.2,127.2,305.3z"/>
	<path class="st4" d="M126.6,133.8c-1.8,4.1-4.3,6.9-5.7,6.3c-1.4-0.6-1-4.4,0.7-8.4s2.9-8.9,4.3-8.3
		C127.4,124,128.4,129.7,126.6,133.8z"/>
</g>
</svg>
