<?xml version="1.0" encoding="utf-8"?>
<!-- Generator: Adobe Illustrator 19.1.0, SVG Export Plug-In . SVG Version: 6.00 Build 0)  -->
<svg version="1.1" id="Layer_1" xmlns="http://www.w3.org/2000/svg" xmlns:xlink="http://www.w3.org/1999/xlink" x="0px" y="0px"
	 viewBox="0 0 371.3 436.7" style="enable-background:new 0 0 371.3 436.7;" xml:space="preserve">
<style type="text/css">
	.st0{fill:#CBCBCB;stroke:#939393;stroke-miterlimit:10;}
	.st1{fill:#3A2316;}
	.st2{fill:#F9FCFD;}
	.st3{fill:#E04428;}
	.st4{fill:none;stroke:#388DCC;stroke-width:2;stroke-miterlimit:10;}
	.st5{fill:#388DCC;stroke:#388DCC;stroke-width:2;stroke-miterlimit:10;}
</style>
<g>
	<path class="st0" d="M326,130.6c15.9,13.4,31.8,35.3,26.7,55.3c-5.2,20.4-18.9,32.8-39.6,37c-3.2,0.7-6.6,0.9-9.9,0.9
		c-80.7,0-161.3,0-242,0.1c-24.9,0-49.3-18.1-50.9-48.1c-1-18.3,7.5-33.1,22.9-43.5c9.8-6.6,9.2-3.9,5.3-14.7
		C27.1,84.9,54.8,45.1,93.6,46.4c9.8,0.3,18.6,3.5,27,8c4.1,2.2,6.1,1.6,7.5-3c4.3-14.3,11.9-26.3,24.6-34.7
		c25.6-16.9,61.1-8.6,76.5,17.9c2.8,4.9,4.9,10.2,7,15.4c2.7,6.8,2.7,7.1,9.4,3.6c10.1-5.3,20.7-7.7,32.2-7
		c24.1,1.4,47.7,24,50.5,47.9C330.9,117.7,323.3,128.3,326,130.6z"/>
	<g>
		<path class="st1" d="M149.1,108.6h-31.5c-1.4,0-2.6-1.2-2.6-2.6v-2.9c0-1.4,1.2-2.6,2.6-2.6h31.5c1.4,0,2.6,1.2,2.6,2.6v2.9
			C151.7,107.5,150.5,108.6,149.1,108.6z"/>
		<rect x="146.1" y="101.7" class="st2" width="3.5" height="5.7"/>
	</g>
	<g>
		<path class="st1" d="M238.6,108.6h-31.5c-1.4,0-2.6-1.2-2.6-2.6v-2.9c0-1.4,1.2-2.6,2.6-2.6h31.5c1.4,0,2.6,1.2,2.6,2.6v2.9
			C241.1,107.5,240,108.6,238.6,108.6z"/>
		<rect x="235.1" y="101.7" class="st2" width="3.5" height="5.7"/>
	</g>
	<g>
		<g>
			<path class="st3" d="M123.5,174.2c8.8-4.3,18.6-7.2,28.4-6.5c9.7,0.7,16.8,6.5,25.6,9.7c13.8,5,29.7,1,40.2-9.1
				c2.3-2.2-1.2-5.8-3.5-3.5c-6.2,6-14.4,9.5-23.1,9.8c-8.9,0.2-15.6-3.7-23.4-7.5c-15.2-7.4-32-4.3-46.7,2.8
				C118.1,171.3,120.6,175.6,123.5,174.2L123.5,174.2z"/>
		</g>
	</g>
	<g>
		<line class="st4" x1="239.3" y1="242.4" x2="252.6" y2="286.5"/>
		<line class="st4" x1="227.5" y1="280.8" x2="260.2" y2="250.6"/>
		<line class="st4" x1="224.3" y1="257.5" x2="267.8" y2="270.7"/>
		<path class="st4" d="M236.9,245c0.7,1.6,2.6,2.3,4,1.6c1.3-0.6,2-2.2,1.5-3.7"/>
		<path class="st4" d="M256.7,249.6c-1.2,1.3-1.1,3.3,0.1,4.3c1.1,0.9,2.8,0.9,4-0.1"/>
		<path class="st4" d="M267.7,267.2c-1.7-0.4-3.4,0.7-3.7,2.3c-0.3,1.4,0.6,2.9,2,3.4"/>
		<path class="st4" d="M254.8,283.4c-0.7-1.4-2.5-1.8-3.9-1c-1.3,0.7-1.9,2.2-1.4,3.5"/>
		<path class="st4" d="M223.5,260c1.4,0.7,3.1-0.1,3.7-1.6c0.6-1.3,0.1-2.9-1-3.6"/>
		<path class="st4" d="M230,282c1.3-0.9,1.4-2.7,0.5-4c-0.9-1.1-2.5-1.6-3.7-0.9"/>
	</g>
	<g>
		<line class="st4" x1="163.9" y1="332.7" x2="177.1" y2="376.8"/>
		<line class="st4" x1="152" y1="371.1" x2="184.8" y2="340.9"/>
		<line class="st4" x1="148.9" y1="347.8" x2="192.3" y2="361"/>
		<path class="st4" d="M161.5,335.3c0.7,1.6,2.6,2.3,4,1.6c1.3-0.6,2-2.2,1.5-3.7"/>
		<path class="st4" d="M181.2,339.9c-1.2,1.3-1.1,3.3,0.1,4.3c1.1,0.9,2.8,0.9,4-0.1"/>
		<path class="st4" d="M192.3,357.5c-1.7-0.4-3.4,0.7-3.7,2.3c-0.3,1.4,0.6,2.9,2,3.4"/>
		<path class="st4" d="M179.3,373.7c-0.7-1.4-2.5-1.8-3.9-1c-1.3,0.7-1.9,2.2-1.4,3.5"/>
		<path class="st4" d="M148.1,350.3c1.4,0.7,3.1-0.1,3.7-1.6c0.6-1.3,0.1-2.9-1-3.6"/>
		<path class="st4" d="M154.5,372.3c1.3-0.9,1.4-2.7,0.5-4c-0.9-1.1-2.5-1.6-3.7-0.9"/>
	</g>
	<g>
		<line class="st4" x1="87.2" y1="247.1" x2="100.4" y2="291.2"/>
		<line class="st4" x1="75.3" y1="285.5" x2="108.1" y2="255.3"/>
		<line class="st4" x1="72.2" y1="262.2" x2="115.7" y2="275.4"/>
		<path class="st4" d="M84.8,249.7c0.7,1.6,2.6,2.3,4,1.6c1.3-0.6,2-2.2,1.5-3.7"/>
		<path class="st4" d="M104.6,254.3c-1.2,1.3-1.1,3.3,0.1,4.3c1.1,0.9,2.8,0.9,4-0.1"/>
		<path class="st4" d="M115.6,271.9c-1.7-0.4-3.4,0.7-3.7,2.3c-0.3,1.4,0.6,2.9,2,3.4"/>
		<path class="st4" d="M102.6,288.1c-0.7-1.4-2.5-1.8-3.9-1c-1.3,0.7-1.9,2.2-1.4,3.5"/>
		<path class="st4" d="M71.4,264.7c1.4,0.7,3.1-0.1,3.7-1.6c0.6-1.3,0.1-2.9-1-3.6"/>
		<path class="st4" d="M77.9,286.7c1.3-0.9,1.4-2.7,0.5-4c-0.9-1.1-2.5-1.6-3.7-0.9"/>
	</g>
	<circle class="st5" cx="263.9" cy="339.3" r="7.3"/>
	<circle class="st5" cx="161.8" cy="264" r="7.3"/>
	<circle class="st5" cx="96.2" cy="336.9" r="7.3"/>
	<circle class="st5" cx="176.4" cy="419.5" r="7.3"/>
</g>
</svg>
