<?xml version="1.0" encoding="utf-8"?>
<!-- Generator: Adobe Illustrator 19.1.0, SVG Export Plug-In . SVG Version: 6.00 Build 0)  -->
<svg version="1.1" id="Layer_1" xmlns="http://www.w3.org/2000/svg" xmlns:xlink="http://www.w3.org/1999/xlink" x="0px" y="0px"
	 viewBox="0 0 423.3 436.7" style="enable-background:new 0 0 423.3 436.7;" xml:space="preserve">
<style type="text/css">
	.st0{fill:#FCDD4F;stroke:#E8E27F;stroke-miterlimit:10;}
	.st1{fill:#A13422;}
	.st2{fill:#EF672A;}
	.st3{fill:#F9FCFD;}
	.st4{fill:#402616;}
	.st5{fill:#FFF9F7;}
</style>
<g>
	<ellipse class="st0" cx="212" cy="224.2" rx="132.6" ry="131"/>
	<g>
		<path class="st1" d="M264.6,255.6c0.2,3.5,0,9.2-2.4,15.5c-4.4,11.6-13.4,17.5-17,19.8c-12.4,7.9-25,7.5-36.7,7.1
			c-13.1-0.5-22.3-0.8-31.1-7.1c-1.7-1.2-3.2-2.5-4.6-3.9c-1.2-1.2-2.2-2.4-3.2-3.7c-8-10.7-9-23.7-9.2-27.2L264.6,255.6z"/>
		<path class="st2" d="M171.5,283.3c-0.2-2.7,19.8-6.6,22-7c3.4-0.7,9.8-1.7,18-1.9c5.3-0.1,14.2-0.2,25.5,2.8
			c6.4,1.7,16.9,4.5,16.7,6.6c-0.1,1.6-6,7.4-14.8,10.7c-3.8,1.4-8.2,2.3-12.8,2.8s-9.4,0.7-14.2,0.6c-7-0.1-14.3-0.8-20.7-2.2
			c-4.1-0.9-7.9-2.1-10.9-3.6C174.3,289.2,171.6,284.5,171.5,283.3z"/>
		<path class="st3" d="M183.3,266.9h-7.2c-0.7,0-1.2-0.5-1.2-1.2v-9.5c0-0.7,0.5-1.2,1.2-1.2h7.2c0.7,0,1.2,0.5,1.2,1.2v9.5
			C184.5,266.4,184,266.9,183.3,266.9z"/>
	</g>
	<polygon class="st0" points="183,70.9 211,16.9 239.1,70.9 	"/>
	<polygon class="st0" points="228.5,371.7 199.6,425.2 172.4,370.8 	"/>
	<polygon class="st0" points="361.8,197.4 412.1,231.5 355.3,253.1 	"/>
	<polygon class="st0" points="305.1,95.8 363.9,80.2 342.8,137.3 	"/>
	<polygon class="st0" points="84.8,134.5 72.1,75 128,98.8 	"/>
	<polygon class="st0" points="334.2,321.5 341.2,381.9 287.7,352.9 	"/>
	<polygon class="st0" points="64.8,245.5 11.1,217.1 65.3,189.5 	"/>
	<polygon class="st0" points="109.4,337.7 49.7,349.3 74.6,293.8 	"/>
	<g>
		<path class="st4" d="M167.7,184.4h-6.6c-4,0-7.2-3.3-7.2-7.2v-6c0-4,3.3-7.2,7.2-7.2h6.6c4,0,7.2,3.3,7.2,7.2v6
			C175,181.1,171.7,184.4,167.7,184.4z"/>
		<ellipse class="st5" cx="169" cy="172.6" rx="2.8" ry="4.4"/>
	</g>
	<g>
		<path class="st4" d="M256.5,186.8h-6.6c-4,0-7.2-3.3-7.2-7.2v-6c0-4,3.3-7.2,7.2-7.2h6.6c4,0,7.2,3.3,7.2,7.2v6
			C263.7,183.5,260.4,186.8,256.5,186.8z"/>
		<ellipse class="st5" cx="257.7" cy="175" rx="2.8" ry="4.4"/>
	</g>
</g>
</svg>
