<?xml version="1.0" encoding="utf-8"?>
<!-- Generator: Adobe Illustrator 19.1.0, SVG Export Plug-In . SVG Version: 6.00 Build 0)  -->
<svg version="1.1" id="Layer_1" xmlns="http://www.w3.org/2000/svg" xmlns:xlink="http://www.w3.org/1999/xlink" x="0px" y="0px"
	 viewBox="0 0 382.9 400.2" style="enable-background:new 0 0 382.9 400.2;" xml:space="preserve">
<style type="text/css">
	.st0{fill:#FCDD4F;stroke:#E8E27F;stroke-miterlimit:10;}
	.st1{fill:#CBCBCB;stroke:#939393;stroke-miterlimit:10;}
	.st2{fill:#402616;}
	.st3{fill:#FFF9F7;}
	.st4{fill:#BD3F2A;}
	.st5{fill:#F4F1DF;}
	.st6{fill:#ED6842;}
</style>
<g>
	<path class="st0" d="M171.9,381.6c8.6-32,17.3-64,26.1-96.7c-20.7,0-41.1,0-62.2,0c1.2-2.1,1.8-3.4,2.6-4.6
		c9.3-14.4,18.7-28.7,27.9-43.2c1.8-2.9,3.9-4,7.3-3.9c12.3,0.2,24.7,0.1,37,0.1c1.4,0,2.9,0.2,5.3,0.3
		c-9.6,13.2-18.7,25.8-28.4,39.1c16.7,0,32.5,0,49.6,0c-21.7,37.1-42.9,73.3-64,109.4C172.6,382,172.3,381.8,171.9,381.6z"/>
	<path class="st1" d="M338,139.9c15.9,13.4,31.8,35.3,26.7,55.3c-5.2,20.4-18.9,32.8-39.6,37c-3.2,0.7-6.6,0.9-9.9,0.9
		c-80.7,0-161.3,0-242,0.1c-24.9,0-49.3-18.1-50.9-48.1c-1-18.3,7.5-33.1,22.9-43.5c9.8-6.6,9.2-3.9,5.3-14.7
		C39,94.3,66.7,54.5,105.5,55.8c9.8,0.3,18.6,3.5,27,8c4.1,2.2,6.1,1.6,7.5-3c4.3-14.3,11.9-26.3,24.6-34.7
		c25.6-16.9,61.1-8.6,76.5,17.9c2.8,4.9,4.9,10.2,7,15.4c2.7,6.8,2.7,7.1,9.4,3.6c10.1-5.3,20.7-7.7,32.2-7
		c24.1,1.4,47.7,24,50.5,47.9C342.9,127.1,335.2,137.6,338,139.9z"/>
	<g>
		<path class="st2" d="M147.9,124.9h-6.6c-4,0-7.2-3.3-7.2-7.2v-6c0-4,3.3-7.2,7.2-7.2h6.6c4,0,7.2,3.3,7.2,7.2v6
			C155.1,121.6,151.8,124.9,147.9,124.9z"/>
		<ellipse class="st3" cx="149.1" cy="113" rx="2.8" ry="4.4"/>
	</g>
	<g>
		<path class="st2" d="M228.2,125.9h-6.6c-4,0-7.2-3.3-7.2-7.2v-6c0-4,3.3-7.2,7.2-7.2h6.6c4,0,7.2,3.3,7.2,7.2v6
			C235.4,122.6,232.2,125.9,228.2,125.9z"/>
		<ellipse class="st3" cx="229.4" cy="114" rx="2.8" ry="4.4"/>
	</g>
	<g>
		<path class="st4" d="M207.6,171.5c0,12.2-9.5,22-21.3,22c-5.4,0-10.3-2.1-14-5.5c-4.4-4-7.2-10-7.2-16.6c0-12.2,9.5-22,21.3-22
			S207.6,159.4,207.6,171.5z"/>
		<path class="st5" d="M174.1,153.3l2,5.4c0.2,1.8-1.1,3.5-2.9,3.7l-1,0.1c-1.8,0.2-3.5-1.1-3.8-2.9c0-0.1,0-0.2,0.1-0.3l1.4-2.1"/>
		<path class="st5" d="M198.6,153.3l-2,5.4c-0.2,1.8,1.1,3.5,2.9,3.7l1,0.1c1.8,0.2,3.5-1.1,3.8-2.9c0-0.1,0-0.2-0.1-0.3l-1.4-2.1"
			/>
		<polygon class="st6" points="172.3,188.1 178.2,185.5 187.4,185.5 195.5,185.5 202,186.5 199.2,189.1 194.7,191.8 189.5,193.3 
			185.5,193.3 181.3,192.9 177.3,191.4 		"/>
	</g>
</g>
</svg>
