<?xml version="1.0" encoding="utf-8"?>
<!-- Generator: Adobe Illustrator 19.1.0, SVG Export Plug-In . SVG Version: 6.00 Build 0)  -->
<svg version="1.1" id="Layer_1" xmlns="http://www.w3.org/2000/svg" xmlns:xlink="http://www.w3.org/1999/xlink" x="0px" y="0px"
	 viewBox="0 0 423.3 288.6" style="enable-background:new 0 0 423.3 288.6;" xml:space="preserve">
<style type="text/css">
	.st0{fill:#CBCBCB;stroke:#939393;stroke-miterlimit:10;}
	.st1{fill:none;stroke:#3A2316;stroke-width:3;stroke-miterlimit:10;}
	.st2{fill:#A13422;}
	.st3{fill:#2D2B2A;}
</style>
<g>
	<path class="st0" d="M329.5,141.4c15.9,13.4,31.8,35.3,26.7,55.3c-5.2,20.4-18.9,32.8-39.6,37c-3.2,0.7-6.6,0.9-9.9,0.9
		c-80.7,0-161.3,0-242,0.1c-24.9,0-49.3-18.1-50.9-48.1c-1-18.3,7.5-33.1,22.9-43.5c9.8-6.6,9.2-3.9,5.3-14.7
		C30.5,95.7,58.2,55.9,97,57.2c9.8,0.3,18.6,3.5,27,8c4.1,2.2,6.1,1.6,7.5-3c4.3-14.3,11.9-26.3,24.6-34.7
		c25.6-16.9,61.1-8.6,76.5,17.9c2.8,4.9,4.9,10.2,7,15.4c2.7,6.8,2.7,7.1,9.4,3.6c10.1-5.3,20.7-7.7,32.2-7
		c24.1,1.4,47.7,24,50.5,47.9C334.4,128.5,326.8,139,329.5,141.4z"/>
	<path class="st1" d="M149.6,115.7c-1.8-2-5.1-5.4-9.8-7c-6-2.2-10.7-0.4-12.8,0.4c-2.1,0.8-5.6,2.3-8.5,6.5
		c-0.9,1.3-1.5,2.5-1.9,3.4"/>
	<path class="st1" d="M244.7,118.1c-1.5-2.3-4.3-6-8.7-8.3c-5.7-3-10.6-1.9-12.7-1.4c-2.2,0.5-5.9,1.5-9.4,5.2
		c-1.1,1.2-1.8,2.3-2.4,3.1"/>
	<path class="st2" d="M179,163.9c-1.3-4.1-9-5.5-17.2-3.3c-7.6,2.1-13.7,11.1-13.8,11.6c-0.2,3.7,4.9,12.1,12.2,15.2
		c7.3,3.1,14.9,2.4,17-1.4c2-3.8-3.5-8.2-10.9-11.3c-0.3-0.1-0.6-0.2-0.9-0.4c0.3-0.1,0.7-0.2,1-0.3
		C174.6,171.8,180.3,168,179,163.9z"/>
	<g>
		<g>
			<path class="st3" d="M193.5,174.4c36,8,73.2,9.7,109.8,4.8c17.7-2.4,35.9-6.1,52-14.4c12-6.2,23.4-17.8,20.9-32.5
				c-2.2-12.9-18.6-21.1-28.8-11c-2.3,2.3,1.2,5.8,3.5,3.5c5.6-5.6,15.4-2.9,18.8,3.8c4.4,8.4,0,18.5-6.4,24.6
				c-13.2,12.6-34.8,16.8-52.2,19.8c-38.6,6.5-78.3,5.1-116.5-3.4C191.7,168.8,190.3,173.7,193.5,174.4L193.5,174.4z"/>
		</g>
	</g>
	<g>
		<g>
			<path class="st3" d="M188.8,190.8c39.1,17.4,78.5,34.8,120,45.7c20.3,5.3,41.1,9,62.1,10.1c15.2,0.8,40.8,1.5,43.6-18.9
				c2.5-18.1-20.2-21.1-33.1-20.5c-3.2,0.1-3.2,5.1,0,5c10.6-0.5,36.2,2.7,26.4,19.8c-5.1,8.8-16,10-25.1,10
				c-8.8,0-17.7-0.6-26.4-1.6c-36.8-4-72.4-15.4-106.6-29c-19.7-7.8-39-16.3-58.3-24.9C188.4,185.2,185.8,189.5,188.8,190.8
				L188.8,190.8z"/>
		</g>
	</g>
	<g>
		<g>
			<path class="st3" d="M177.4,204.9c3.5,15.6,16.1,27.4,27,38.3c11.4,11.5,23.9,22.6,38.8,29.2c12.5,5.5,30.8,9.7,40.4-3.3
				c7.3-9.9,0.7-25.5-12.6-23.2c-3.2,0.5-1.8,5.4,1.3,4.8c8.1-1.4,11.5,8.5,8,14.4c-3.4,5.7-10.4,7.9-16.7,7.6
				c-12.5-0.5-24.7-7.3-34.6-14.4c-9.6-6.9-18.1-15.4-26.2-24c-8.6-9-17.7-18.3-20.5-30.8C181.5,200.4,176.7,201.7,177.4,204.9
				L177.4,204.9z"/>
		</g>
	</g>
</g>
</svg>
